<?xml version="1.0" encoding="UTF-8"?>
<svg width="73px" height="73px" viewBox="0 0 73 73" version="1.1" xmlns="http://www.w3.org/2000/svg" xmlns:xlink="http://www.w3.org/1999/xlink">
    <title>close</title>
    <g id="Page-1" stroke="none" stroke-width="1" fill="none" fill-rule="evenodd">
        <g id="close" fill="#FFFFFF" fill-rule="nonzero">
            <path d="M36.5,0.75 C16.7558202,0.75 0.75,16.7558202 0.75,36.5 C0.75,56.2441798 16.7558202,72.25 36.5,72.25 C56.2441798,72.25 72.25,56.2441798 72.25,36.5 C72.25,16.7558202 56.2441798,0.75 36.5,0.75 Z M36.5,5.25 C53.7588984,5.25 67.75,19.2411016 67.75,36.5 C67.75,53.7588984 53.7588984,67.75 36.5,67.75 C19.2411016,67.75 5.25,53.7588984 5.25,36.5 C5.25,19.2411016 19.2411016,5.25 36.5,5.25 Z" id="Oval"></path>
            <polygon id="Line-Copy" transform="translate(36.500000, 36.500000) rotate(-225.000000) translate(-36.500000, -36.500000) " points="58.25 34.25 58.25 38.75 14.75 38.75 14.75 34.25"></polygon>
            <polygon id="Line-Copy" transform="translate(36.500000, 36.500000) rotate(-135.000000) translate(-36.500000, -36.500000) " points="58.25 34.25 58.25 38.75 14.75 38.75 14.75 34.25"></polygon>
        </g>
    </g>
</svg>