<?xml version="1.0" encoding="utf-8"?>
<!-- Generator: Adobe Illustrator 24.2.1, SVG Export Plug-In . SVG Version: 6.00 Build 0)  -->
<svg version="1.1" id="Layer_1" xmlns="http://www.w3.org/2000/svg" xmlns:xlink="http://www.w3.org/1999/xlink" x="0px" y="0px"
	 viewBox="0 0 453 723.6" style="enable-background:new 0 0 453 723.6;" xml:space="preserve">
<style type="text/css">
	.st0{fill:#CA4C39;}
	.st1{enable-background:new    ;}
</style>
<g>
	<path class="st0" d="M133.1,140.2h83.1c0.9,0,1.7-0.5,2-1.3c2.6-6.4,7.7-11.5,14.1-14.1c0.8-0.3,1.3-1.1,1.3-2V85.9
		c0-0.8-0.4-1.5-1-1.9c-4.9-2.9-8.4-8.1-9.1-14c-34,18.4-65.8,40.5-94.7,65.7C130.5,136.9,132,138.5,133.1,140.2z"/>
	<path class="st0" d="M363.5,194.3l-29.4,63.3c-0.4,0.8-0.2,1.8,0.5,2.4c2.3,2.1,3.9,4.7,4.7,7.8c0.2,0.9,1.1,1.5,2,1.5h48.1
		c0.9,0,1.7-0.6,2-1.5c1-3.5,3.1-6.6,5.9-8.7l-30.1-64.7C366.5,192.8,364.2,192.8,363.5,194.3z"/>
	<path class="st0" d="M261.2,65.5c0.9,7.9-3,14.9-9.1,18.6c-0.7,0.4-1,1.1-1,1.9v36.8c0,0.9,0.5,1.7,1.3,2
		c6.4,2.6,11.5,7.7,14.1,14.1c0.3,0.8,1.1,1.3,2,1.3h83.1c3.2-5.1,9.2-8.3,15.9-7.4c7.3,1,13.1,6.9,13.9,14.2
		c0.9,7.6-3.5,14.3-10,16.9c-1.1,0.4-1.5,1.7-1,2.8l3,6.3l38.5,82.8c0.2,0.5,0.6,0.9,1.2,1.1c4.7,1.9,8.3,5.9,9.7,10.8
		c0.2,0.9,1.1,1.5,2,1.5h3.7L386.1,14.5c-45.8,7.5-89.6,21.1-130.6,39.7C258.6,57.1,260.7,61.1,261.2,65.5z"/>
	<path class="st0" d="M117.6,194.3l-29.4,63.3c-0.4,0.8-0.2,1.8,0.5,2.4c2.3,2.1,3.9,4.7,4.7,7.8c0.2,0.9,1.1,1.5,2,1.5h48.1
		c0.9,0,1.7-0.6,2-1.5c0.8-3,2.5-5.7,4.7-7.8c0.7-0.6,0.9-1.6,0.5-2.4l-29.4-63.3C120.5,192.8,118.3,192.8,117.6,194.3z"/>
	<path class="st0" d="M429.7,277.2c-39.5,31.4-96.5,29.9-134.2-4.6c-1.3-1.1-0.4-3.2,1.3-3.2h9.2c0.9,0,1.7-0.6,2-1.5
		c1.3-5,5-9,9.7-10.8c0.5-0.2,0.9-0.6,1.2-1.1l38.5-82.8l3-6.3c0.5-1,0-2.3-1-2.8c-2.8-1.2-5.3-3.1-7-5.5c-0.4-0.5-1-0.8-1.7-0.8
		h-82c-0.9,0-1.7,0.5-2,1.3c-2.6,6.4-7.7,11.5-14.1,14.1c-0.8,0.3-1.3,1.1-1.3,2v34.3c0,0.9,0.6,1.8,1.5,2.1
		c3.8,1.1,6.5,4.6,6.5,8.7c0,4.1-2.7,7.6-6.5,8.7c-0.9,0.3-1.5,1.1-1.5,2.1V341c0,1.2,1,2.2,2.2,2.2h0.7c5.5,0,10,4,10.9,9.2
		c0.2,1.1,1.1,1.8,2.2,1.8h13.9c3.8,0,6.8,3.1,6.8,6.8v1.5c0,1.2,1,2.2,2.2,2.2h12.3c7.7,0,13.9,6.2,13.9,13.9v2.7
		c0,0.8,0.5,1.7,1.2,2c1.1,0.5,1.9,1.6,1.9,2.9v2h-73.1h-7.7h-27.2l99.7,54.3c26.5-48.5,74.2-83.6,130.7-93L429.7,277.2z"/>
	<path class="st0" d="M182.5,364.7h12.3c1.2,0,2.2-1,2.2-2.2V361c0-3.8,3.1-6.8,6.8-6.8h13.9c1.1,0,2-0.8,2.2-1.8
		c0.9-5.2,5.4-9.2,10.9-9.2h0.7c1.2,0,2.2-1,2.2-2.2V230.9c0-0.9-0.6-1.8-1.5-2.1c-3.8-1.1-6.5-4.6-6.5-8.7s2.7-7.6,6.5-8.7
		c0.9-0.3,1.5-1.1,1.5-2.1V175c0-0.9-0.5-1.7-1.3-2c-6.4-2.6-11.5-7.7-14.1-14.1c-0.3-0.8-1.1-1.3-2-1.3h-82c-0.7,0-1.3,0.3-1.7,0.8
		c-1.8,2.4-4.2,4.4-7,5.5c-1.1,0.4-1.5,1.7-1,2.8l3,6.3l38.5,82.8c0.2,0.5,0.6,0.9,1.2,1.1c4.7,1.9,8.3,5.9,9.7,10.8
		c0.2,0.9,1.1,1.5,2,1.5h9.2c1.7,0,2.5,2.1,1.3,3.2c-39.5,36.1-100.2,36.1-139.7,0c-1.3-1.1-0.4-3.2,1.3-3.2h9.2
		c0.9,0,1.7-0.6,2-1.5c1.3-5,5-9,9.7-10.8c0.5-0.2,0.9-0.6,1.2-1.1l38.5-82.8l3-6.3c0.5-1,0-2.3-1-2.8c-3.3-1.3-6-3.7-7.8-6.7
		c-36.6,36-68,77.4-92.8,122.8l161.1,87.7C176.2,365.9,179.2,364.7,182.5,364.7z"/>
</g>
<g class="st1">
	<path class="st0" d="M67.5,508.8h-6.2v18.5H49.6v-50h17.9c10.2,0,18.3,4.6,18.3,15.7C85.8,504.1,77.8,508.8,67.5,508.8z
		 M65.9,486.3h-4.6v13.4h4.6c4.6,0,8-1.6,8-6.7C73.9,487.9,70.4,486.3,65.9,486.3z"/>
	<path class="st0" d="M126.3,512.2h-25.5c0.5,5.1,4.4,7.5,9.1,7.5c4.6,0,8.7-2,10.7-3.4l4.6,6c-1.2,0.9-5.9,5.8-17,5.8
		c-11,0-19.1-6.8-19.1-18.6c0-11.8,8.7-18.6,19.3-18.6s17.9,7,17.9,17.5C126.5,510.1,126.3,512.2,126.3,512.2z M108.4,498.4
		c-4.8,0-7.3,3.8-7.4,7.2h14.7C115.6,502.3,113.2,498.4,108.4,498.4z"/>
	<path class="st0" d="M152.4,528.1c-11.3,0-19.9-7-19.9-18.6s8.6-18.6,19.9-18.6s19.8,7.1,19.8,18.6S163.7,528.1,152.4,528.1z
		 M152.4,500c-5.1,0-8.1,4-8.1,9.3s3,9.3,8.1,9.3c5.1,0,8.1-4,8.1-9.3S157.5,500,152.4,500z"/>
	<path class="st0" d="M203.3,528.1c-5.3,0-9.1-2-11.3-5.3v17.6h-11.6v-48.9h11l-0.1,4.6h0.1c2.6-3.1,6.5-5.2,11.9-5.2
		c10.3,0,16.8,8,16.8,18.6C220.2,519.9,213.6,528.1,203.3,528.1z M199.9,500c-4.9,0-8.3,3.8-8.3,9.3s3.4,9.3,8.3,9.3
		c5,0,8.4-3.8,8.4-9.3S204.9,500,199.9,500z"/>
	<path class="st0" d="M228.4,527.3v-50H240v50H228.4z"/>
	<path class="st0" d="M285.3,512.2h-25.5c0.5,5.1,4.4,7.5,9.1,7.5c4.6,0,8.7-2,10.7-3.4l4.6,6c-1.2,0.9-5.9,5.8-17,5.8
		c-11,0-19.1-6.8-19.1-18.6c0-11.8,8.7-18.6,19.3-18.6c10.6,0,17.9,7,17.9,17.5C285.4,510.1,285.3,512.2,285.3,512.2z M267.3,498.4
		c-4.8,0-7.3,3.8-7.4,7.2h14.7C274.5,502.3,272.2,498.4,267.3,498.4z"/>
	<path class="st0" d="M331.6,485.3c0,0-2.2-0.7-4.3-0.7c-3.4,0-4.3,2-4.3,4.6v2.3h7.7v8.8h-7.7v26.9h-11.7v-26.9h-4.6v-8.8h4.6v-2
		c0-8.6,4.1-13.3,12.9-13.3c4.6,0,7.9,0.9,7.9,0.9L331.6,485.3z"/>
	<path class="st0" d="M353.4,528.1c-11.3,0-19.9-7-19.9-18.6s8.6-18.6,19.9-18.6c11.3,0,19.8,7.1,19.8,18.6S364.7,528.1,353.4,528.1
		z M353.4,500c-5.1,0-8.1,4-8.1,9.3s3,9.3,8.1,9.3c5.1,0,8.1-4,8.1-9.3S358.4,500,353.4,500z"/>
	<path class="st0" d="M404.7,502.2h-0.5c-0.7-0.4-2.2-0.9-4.2-0.9c-5.7,0-7.2,5.4-7.2,10.1v15.9h-11.6v-35.7h11.6l-0.1,5.1h0.1
		c2-3.9,5-5.7,8.8-5.7c2.4,0,3.6,0.7,3.6,0.7L404.7,502.2z"/>
</g>
<g class="st1">
	<path class="st0" d="M96.9,557.6v12.3h18.4v9.4H96.9v19.1H85.3v-50h31.3v9.4H96.9z"/>
	<path class="st0" d="M147.2,598.3l-0.2-3.8c-1.5,1.5-4.4,4.6-10.2,4.6c-6.3,0-13-3.4-13-11.4c0-8,7.3-10.7,13.9-10.9l9-0.4v-0.8
		c0-3.8-2.7-5.7-7.3-5.7c-4.6,0-9.1,2-10.9,3.2l-3-7.5c3-1.5,8.6-3.6,15.3-3.6c11.2,0,17.6,4.6,17.6,16.2v20.2H147.2z M141,582.9
		c-3.6,0.1-5.7,1.7-5.7,4.4c0,2.8,2.2,4.4,5.4,4.4c3.1,0,5.2-2,5.9-3.3v-5.9L141,582.9z"/>
	<path class="st0" d="M173.8,558.4c-3.9,0-6.6-2.4-6.6-6c0-3.6,2.7-6,6.6-6c3.9,0,6.6,2.5,6.6,6C180.4,556,177.7,558.4,173.8,558.4z
		 M168,598.3v-35.7h11.6v35.7H168z"/>
	<path class="st0" d="M213.3,573.2h-0.5c-0.7-0.4-2.2-0.9-4.2-0.9c-5.7,0-7.2,5.4-7.2,10.1v15.9h-11.6v-35.7h11.6l-0.1,5.1h0.1
		c2-3.9,5-5.7,8.8-5.7c2.4,0,3.6,0.7,3.6,0.7L213.3,573.2z"/>
	<path class="st0" d="M243.8,598.3v-18.6c0-4.7-0.7-8.3-5.5-8.3c-5,0-6.4,4.1-6.4,9.2v17.7h-11.6v-35.7h11.6l-0.1,5.1h0.1
		c2-3.2,5.2-5.8,10.4-5.8c10.4,0,13.1,6.7,13.1,15.3v21.1H243.8z"/>
	<path class="st0" d="M300.2,583.2h-25.5c0.5,5.1,4.4,7.5,9.1,7.5c4.6,0,8.7-2,10.7-3.4l4.6,6c-1.2,0.9-5.9,5.8-17,5.8
		c-11,0-19.1-6.8-19.1-18.6c0-11.8,8.7-18.6,19.3-18.6c10.6,0,17.9,7,17.9,17.5C300.3,581.1,300.2,583.2,300.2,583.2z M282.2,569.5
		c-4.8,0-7.3,3.8-7.4,7.2h14.7C289.4,573.4,287.1,569.5,282.2,569.5z"/>
	<path class="st0" d="M320.2,599.1c-5.4,0-11-1.7-15.1-5.5l4.4-6.9c2.9,2.5,7.7,4.4,10.6,4.4s4.9-0.7,4.9-3s-5.2-3.5-6.5-3.9
		c-5.9-1.5-11.2-3.6-11.2-11c0-7,6.1-11.2,13.6-11.2c7.5,0,11.7,2.8,13.7,4.4l-3.8,6.8c-2-1.6-6.1-3.5-9-3.5c-2.8,0-4.3,0.7-4.3,2.6
		s2.8,2.8,5.2,3.5c6.2,1.8,12.6,3.7,12.6,11.6C335.3,595.8,327.6,599.1,320.2,599.1z"/>
	<path class="st0" d="M354.6,599.1c-5.4,0-11-1.7-15.1-5.5l4.4-6.9c2.9,2.5,7.7,4.4,10.6,4.4s4.9-0.7,4.9-3s-5.2-3.5-6.5-3.9
		c-5.9-1.5-11.2-3.6-11.2-11c0-7,6.1-11.2,13.6-11.2s11.7,2.8,13.7,4.4l-3.8,6.8c-2-1.6-6.1-3.5-9-3.5c-2.8,0-4.3,0.7-4.3,2.6
		s2.8,2.8,5.2,3.5c6.2,1.8,12.6,3.7,12.6,11.6C369.7,595.8,362,599.1,354.6,599.1z"/>
</g>
<g class="st1">
	<path class="st0" d="M97.1,670.2c-14.7,0-26.2-9.7-26.2-25.8c0-16.2,11.7-25.8,26.2-25.8c10.3,0,15.9,4.3,17.2,5.7l-3.6,9.7
		c-0.9-1.2-6.3-5.2-12.9-5.2c-8.5,0-15,5.7-15,15.4c0,9.8,6.8,15.4,15,15.4c6.2,0,10.7-2.5,13.5-5.3l3.9,9.1
		C112.6,666,107.3,670.2,97.1,670.2z"/>
	<path class="st0" d="M139.5,670.2c-11.3,0-19.9-7-19.9-18.6c0-11.5,8.6-18.6,19.9-18.6s19.8,7.1,19.8,18.6
		C159.3,663.1,150.9,670.2,139.5,670.2z M139.5,642.1c-5.1,0-8.1,4-8.1,9.3s3,9.3,8.1,9.3c5.1,0,8.1-4,8.1-9.3
		S144.6,642.1,139.5,642.1z"/>
	<path class="st0" d="M188.3,669.4l-0.2-3.8c-1.5,1.5-4.4,4.6-10.2,4.6c-6.3,0-13-3.4-13-11.4c0-8,7.3-10.7,13.9-10.9l9-0.4v-0.8
		c0-3.8-2.7-5.7-7.3-5.7c-4.6,0-9.1,2-10.9,3.2l-3-7.5c3-1.5,8.6-3.6,15.3-3.6c11.2,0,17.6,4.6,17.6,16.2v20.2H188.3z M182.2,654
		c-3.6,0.1-5.7,1.7-5.7,4.4c0,2.8,2.2,4.4,5.4,4.4c3.1,0,5.2-2,5.9-3.3v-5.9L182.2,654z"/>
	<path class="st0" d="M209.3,669.4v-50h11.6v50H209.3z"/>
	<path class="st0" d="M237.1,629.5c-3.9,0-6.6-2.4-6.6-6c0-3.6,2.7-6,6.6-6c3.9,0,6.6,2.5,6.6,6
		C243.7,627.1,241.1,629.5,237.1,629.5z M231.3,669.4v-35.7h11.6v35.7H231.3z"/>
	<path class="st0" d="M266.6,642.5v12.8c0,3.1,0.2,5.3,3.8,5.3c1.8,0,3.5-0.7,3.5-0.7l0.6,9.1c-0.9,0.2-4.1,1.2-8.3,1.2
		c-9.3,0-11.2-5.7-11.2-13.8v-13.8h-5.1v-8.8h5.1V624h11.7v9.7h7.9v8.8H266.6z"/>
	<path class="st0" d="M287.5,629.5c-3.9,0-6.6-2.4-6.6-6c0-3.6,2.7-6,6.6-6c3.9,0,6.6,2.5,6.6,6
		C294.1,627.1,291.4,629.5,287.5,629.5z M281.7,669.4v-35.7h11.6v35.7H281.7z"/>
	<path class="st0" d="M321.2,670.2c-11.3,0-19.9-7-19.9-18.6c0-11.5,8.6-18.6,19.9-18.6c11.3,0,19.8,7.1,19.8,18.6
		C341,663.1,332.6,670.2,321.2,670.2z M321.2,642.1c-5.1,0-8.1,4-8.1,9.3s3,9.3,8.1,9.3c5.1,0,8.1-4,8.1-9.3
		S326.3,642.1,321.2,642.1z"/>
	<path class="st0" d="M372.6,669.4v-18.6c0-4.7-0.7-8.3-5.5-8.3c-5,0-6.4,4.1-6.4,9.2v17.7h-11.6v-35.7h11.6l-0.1,5.1h0.1
		c2-3.2,5.2-5.8,10.4-5.8c10.4,0,13.1,6.7,13.1,15.3v21.1H372.6z"/>
</g>
</svg>
