<?xml version="1.0" encoding="utf-8"?>
<!-- Generator: Adobe Illustrator 24.2.1, SVG Export Plug-In . SVG Version: 6.00 Build 0)  -->
<svg version="1.1" id="Layer_1" xmlns="http://www.w3.org/2000/svg" xmlns:xlink="http://www.w3.org/1999/xlink" x="0px" y="0px"
	 viewBox="0 0 729.5 626.7" style="enable-background:new 0 0 729.5 626.7;" xml:space="preserve">
<style type="text/css">
	.st0{fill:#CA4C39;}
</style>
<g id="Layer_2_1_">
	<g id="Layer_1-2">
		<g id="Page-1">
			<g id="Artboard-Copy-4">
				<g id="Group">
					<g id="w6-ma-squiggle-border">
						<path class="st0" d="M157,369.6c-8.1,0-15.9-3.2-21.7-8.8l-0.4-0.4c-7.6-7.6-18.1-11.8-28.9-11.4h-0.6
							c-12.7,0.6-24.6-6.6-29.9-18.1l-0.2-0.5c-4.4-9.9-12.6-17.5-22.7-21.1L52,309c-12.1-4-20.5-15-21.3-27.7v-0.5
							c-0.5-10.8-5.4-20.8-13.6-27.9l-0.5-0.4c-9.8-8.1-13.7-21.4-9.9-33.5l0.2-0.5c3.4-10.2,2.5-21.4-2.6-30.9L4,187.1
							c-6.2-11.1-5.1-24.9,2.9-34.8l0.4-0.4c6.9-8.3,10-19,8.7-29.7l-0.1-0.6c-1.8-12.6,4.2-25.1,15.3-31.4l0.5-0.3
							c9.4-5.2,16.2-14.1,18.9-24.6l0.1-0.6c2.9-12.4,13-21.8,25.6-23.8l0.5-0.1c10.7-1.5,20.3-7.3,26.5-16.1l0.3-0.5
							c7.2-10.5,20-15.6,32.5-12.9l0.5,0.1c10.5,2.5,21.5,0.5,30.5-5.4l0.5-0.3c10.5-7.2,24.3-7.4,34.9-0.3l0.5,0.3
							c8.9,6.1,19.9,8.2,30.4,5.9l0.6-0.1c12.4-3,25.3,1.9,32.7,12.3l0.3,0.5c6.1,8.9,15.6,14.9,26.2,16.5l0.6,0.1
							c12.6,1.7,22.9,11,26,23.3l0.1,0.5c2.5,10.5,9.2,19.5,18.5,24.9l0.5,0.3c11.2,6.2,17.4,18.5,15.9,31.2l-0.1,0.5
							c-1.5,10.7,1.5,21.5,8.2,29.9l0.4,0.5c8.2,9.8,9.6,23.5,3.5,34.8l-0.3,0.5c-5.2,9.4-6.4,20.6-3.1,30.8l0.2,0.6
							c4.1,12.1,0.4,25.4-9.3,33.7l-0.4,0.4c-8.3,6.9-13.4,16.9-14,27.6v0.6c-0.6,12.7-8.8,23.9-20.8,28.1l-0.5,0.2
							c-10.2,3.4-18.6,10.9-23.1,20.7l-0.2,0.6c-5.1,11.7-16.8,19.1-29.5,18.7h-0.5c-10.8-0.5-21.3,3.5-29,11l-0.4,0.4
							c-9,9-22.6,11.7-34.3,6.7l-0.5-0.2c-9.9-4.4-21.1-4.5-31-0.3l-0.6,0.3C165.6,368.7,161.3,369.6,157,369.6z M185.4,356
							c6.5,0,12.9,1.4,18.8,4l0.4,0.2c8.9,3.8,19.2,1.7,26-5.1l0.5-0.5c9.2-9,21.8-13.7,34.6-13.1h0.5c9.7,0.3,18.5-5.3,22.4-14.2
							l0.3-0.6c5.4-11.7,15.3-20.6,27.5-24.7l0.5-0.1c9.1-3.2,15.3-11.6,15.8-21.3v-0.7c0.8-12.8,6.9-24.8,16.7-33l0.4-0.3
							c7.3-6.3,10.1-16.4,7-25.5l-0.2-0.6c-3.9-12.3-2.6-25.6,3.7-36.8l0.2-0.4c4.6-8.5,3.5-18.9-2.7-26.3l-0.4-0.5
							c-8.1-10-11.6-22.9-9.9-35.7l0.1-0.5c1.2-9.6-3.6-18.9-12-23.6l-0.6-0.3c-11.1-6.4-19.1-17.2-22.1-29.7l-0.1-0.5
							c-2.3-9.4-10.2-16.4-19.7-17.7l-0.7-0.1c-12.7-2-24.1-9.1-31.3-19.7l-0.3-0.4c-5.6-7.9-15.4-11.6-24.8-9.3l-0.7,0.1
							c-12.6,2.8-25.7,0.2-36.3-7.1l-0.4-0.3c-8.1-5.3-18.5-5.2-26.5,0.3l-0.6,0.4c-10.7,7.1-23.9,9.5-36.5,6.5l-0.5-0.1
							c-9.4-2.1-19.2,1.8-24.6,9.8l-0.4,0.5c-7.4,10.5-18.9,17.5-31.6,19.3l-0.5,0.1c-9.5,1.5-17.2,8.6-19.4,18L57.9,67
							c-3.1,12.5-11.3,23.1-22.5,29.4L35,96.6c-8.4,4.8-13,14.3-11.6,23.8l0.1,0.7c1.6,12.8-2.2,25.6-10.4,35.5l-0.3,0.4
							c-6,7.5-6.9,18-2.2,26.4L11,184c6.1,11.3,7.2,24.7,3.1,36.9l-0.1,0.5c-2.9,9.2,0.1,19.3,7.5,25.4l0.5,0.4
							c9.8,8.4,15.7,20.4,16.3,33.3v0.5c0.6,9.6,7,18,16.2,21l0.6,0.2c12.1,4.3,22,13.4,27.2,25.1l0.2,0.4c4,8.8,13,14.2,22.7,13.7
							h0.7c12.8-0.4,25.3,4.5,34.4,13.6l0.4,0.3c6.9,6.7,17.3,8.5,26.1,4.6l0.7-0.3C173,357.2,179.2,356,185.4,356z"/>
					</g>
					<g id="Ward6MutualAid">
						<path class="st0" d="M107.6,141.9l5.4-21.4l1.8-9.3h0.1l1.8,9.3l5.5,21.4h9.2l11.4-39.2h-8.4l-7.7,32.3l-8-32.3H111l-7.8,32.3
							l-7.7-32.3h-8.7l11.4,39.2H107.6z M154.2,142.5c1.6,0,3.2-0.3,4.7-0.8c1.5-0.5,2.8-1.3,3.9-2.4c0.2-0.2,0.5-0.5,0.7-0.8
							l0.2-0.3l0.1,0.2c0.1,0.3,0.2,0.6,0.4,0.9l0.2,0.3c0.6,1,1.5,1.7,2.6,2.2c1.2,0.5,2.5,0.7,3.7,0.7c1.3,0,2.6-0.2,3.9-0.8l0,0
							l0.5-5c-0.6,0.2-1.3,0.3-1.9,0.3c-1.4,0-2.1-0.8-2.1-2.3l0,0v-12c0.1-2.2-0.5-4.3-1.6-6.1c-1.1-1.6-2.7-2.9-4.5-3.7
							c-2.2-0.9-4.5-1.3-6.8-1.2c-3.8,0-6.9,0.8-9.2,2.4c-2.2,1.5-3.8,3.7-4.4,6.3l0,0l6.9,2.1c0.4-1.5,1.2-2.8,2.4-3.7
							c1.1-0.8,2.5-1.2,3.9-1.1c1.4-0.1,2.8,0.5,3.8,1.4c1,1.1,1.6,2.5,1.5,4l0,0v1.1l-10.2,2.1c-2.1,0.3-4.2,1.2-5.8,2.6l-0.3,0.2
							c-1.4,1.4-2.2,3.4-2.1,5.4c-0.1,1.6,0.4,3.1,1.2,4.4c0.8,1.2,2,2.2,3.4,2.7C150.7,142.3,152.5,142.6,154.2,142.5z
							 M156.3,136.7c-0.9,0-1.9-0.2-2.6-0.8c-0.7-0.5-1.1-1.4-1.1-2.3c-0.1-0.9,0.3-1.7,1-2.2c0.9-0.5,1.9-0.9,3-1.1l0,0l6.2-1.2
							v1.9c0,0.8-0.1,1.7-0.4,2.4l-0.1,0.3c-0.3,0.7-0.8,1.3-1.5,1.8c-0.6,0.4-1.4,0.8-2.1,0.9C157.9,136.6,157.1,136.7,156.3,136.7
							z M188.2,141.9v-15.4c-0.1-1.5,0.3-3.1,1.1-4.4c0.7-1.1,1.6-2,2.8-2.6c1.1-0.6,2.2-0.9,3.4-0.9c0.7,0,1.5,0,2.2,0.1
							c0.5,0.1,1,0.2,1.5,0.3l0,0l1-6.8c-0.4-0.2-0.9-0.4-1.4-0.5c-0.6-0.1-1.2-0.2-1.8-0.2c-2-0.1-4,0.5-5.7,1.7
							c-1.6,1.2-2.8,2.9-3.5,4.8l0,0l-0.5-5.8h-7.1v29.7L188.2,141.9z M215.7,142.5c1.7,0,3.4-0.4,5-1.1c1.5-0.7,2.8-1.8,3.7-3.2
							c0.4-0.6,0.7-1.2,1-1.8l0.1-0.1l0.3,5.7h7.3V99.2H225v18.1l-0.1-0.1c-0.5-1.1-1.3-2.1-2.2-3l-0.3-0.3
							c-1.8-1.5-4.1-2.3-6.5-2.2c-2.3,0-4.6,0.6-6.6,1.8c-2,1.3-3.6,3.1-4.6,5.3c-1.2,2.6-1.8,5.5-1.7,8.4c-0.1,2.8,0.5,5.6,1.6,8.2
							c1,2.2,2.5,4,4.5,5.3C211.1,141.9,213.4,142.6,215.7,142.5L215.7,142.5z M218.1,136.3c-2,0.1-3.9-0.8-5.1-2.3
							c-1.2-1.6-1.8-3.9-1.8-6.8s0.6-5.3,1.9-6.9c1.3-1.6,3.2-2.4,5.2-2.3c1.3,0,2.6,0.3,3.6,1.1c1.1,0.7,1.9,1.8,2.4,3
							c0.6,1.5,0.9,3.2,0.8,4.8c0,1.7-0.2,3.5-0.9,5.1c-0.5,1.3-1.3,2.4-2.4,3.2C220.7,135.9,219.4,136.3,218.1,136.3L218.1,136.3z
							 M275.1,142.5c2.6,0.1,5.2-0.5,7.6-1.6c2.1-1,3.8-2.6,4.9-4.5c1.2-2.1,1.8-4.4,1.8-6.9c0.1-2.3-0.5-4.5-1.6-6.5
							c-1.1-1.8-2.6-3.3-4.5-4.2c-2.1-1-4.3-1.5-6.6-1.5c-1.4,0-2.8,0.2-4.1,0.7c-1.3,0.4-2.6,1.1-3.7,2c-1.1,0.9-1.9,2.1-2.3,3.4
							l0,0l-0.2-0.2l0,0v-1c0-1.8,0.2-3.6,0.6-5.4c0.3-1.5,0.9-2.9,1.7-4.2c0.7-1.1,1.6-2,2.7-2.7c1.1-0.7,2.3-1,3.6-1
							c1.6-0.1,3.2,0.4,4.5,1.3c1.1,1,1.9,2.2,2.3,3.7l0,0l6.9-3.2c-0.6-1.9-1.6-3.6-3-5c-1.3-1.2-2.8-2.2-4.5-2.7
							c-1.8-0.6-3.8-0.9-5.7-0.9c-3,0-5.9,0.7-8.5,2.2c-2.6,1.6-4.7,4-6,6.8c-1.6,3.6-2.3,7.5-2.2,11.4c-0.1,3.7,0.6,7.3,2,10.7
							C263.2,139,268.9,142.7,275.1,142.5L275.1,142.5z M275,136c-1.2,0-2.3-0.3-3.4-0.8c-1-0.5-1.8-1.3-2.4-2.3
							c-1.2-2-1.2-4.5,0-6.5c0.6-0.9,1.4-1.7,2.4-2.2c1.1-0.6,2.2-0.8,3.4-0.8c1.3,0,2.5,0.2,3.6,0.7c1,0.5,1.7,1.2,2.2,2.2
							c0.5,1,0.8,2.2,0.8,3.3c0.1,1.7-0.5,3.4-1.8,4.7C278.5,135.5,276.8,136.1,275,136L275,136z M98.2,211.4v-20.4l-0.4-11.5h0.1
							l10.8,31.9h6.7l10.9-31.9h0.1l-0.4,11.5v20.4h7.4v-39.2h-11.5l-7,21.4l-2.6,8.8h-0.1l-2.5-8.8l-7.1-21.4H90.8v39.2L98.2,211.4
							z M152.8,212c2.2,0.1,4.3-0.4,6.2-1.4c1.8-1,3.2-2.5,4.1-4.4l0,0l0.3,5.2h7.2v-29.7h-8.1v16c0,1.2-0.2,2.4-0.5,3.6
							c-0.3,0.9-0.8,1.8-1.5,2.5c-0.6,0.6-1.3,1.1-2.1,1.4c-0.8,0.3-1.6,0.4-2.4,0.4c-1.5,0.1-3-0.4-4.1-1.3c-1-0.9-1.4-2.5-1.4-4.8
							l0,0v-17.8h-8.1v19.7c-0.1,2.1,0.4,4.2,1.4,6.1c0.9,1.5,2.2,2.7,3.8,3.4C149.1,211.6,151,212,152.8,212L152.8,212z M191.6,212
							c1.5,0,3-0.2,4.5-0.7c1.3-0.4,2.5-1,3.6-1.8l0,0l-1.3-5.4c-0.6,0.5-1.3,0.9-2,1.2c-0.8,0.3-1.7,0.5-2.6,0.4
							c-1.1,0.1-2.2-0.3-3-1c-0.8-0.8-1.2-2-1.1-3.1l0,0v-14h9.5v-6h-9.5v-9.1l-8.1,2.2v6.8h-5.5v6h5.5V203c-0.1,1.7,0.3,3.5,1.1,5
							l0.2,0.3c0.9,1.3,2.1,2.3,3.6,2.9C188,211.7,189.8,212,191.6,212L191.6,212z M215,212c2.2,0.1,4.3-0.4,6.2-1.4
							c1.8-1,3.2-2.5,4.1-4.4l0,0l0.3,5.2h7.2v-29.7h-8.1v16c0,1.2-0.2,2.4-0.5,3.6c-0.3,0.9-0.8,1.8-1.4,2.5
							c-0.6,0.6-1.3,1.1-2.1,1.4c-0.8,0.3-1.6,0.4-2.4,0.4c-1.5,0.1-3-0.4-4.1-1.3c-1-0.9-1.4-2.5-1.4-4.8l0,0v-17.8h-8.1v19.7
							c-0.1,2.1,0.4,4.2,1.4,6.1c0.9,1.5,2.2,2.7,3.8,3.4C211.3,211.6,213.2,212,215,212z M249.6,212c1.6,0,3.2-0.3,4.7-0.8
							c1.5-0.5,2.8-1.3,3.9-2.4c0.2-0.2,0.5-0.5,0.7-0.8l0.2-0.3l0.1,0.2c0.1,0.3,0.2,0.6,0.4,0.9l0.2,0.3c0.6,1,1.5,1.7,2.6,2.2
							c1.2,0.5,2.5,0.7,3.7,0.7c1.3,0,2.6-0.2,3.9-0.8l0,0l0.5-5.1c-0.6,0.2-1.3,0.3-1.9,0.3c-1.4,0-2.1-0.8-2.1-2.3l0,0v-12.1
							c0.1-2.2-0.5-4.3-1.6-6.1c-1.1-1.6-2.7-2.9-4.5-3.6c-2.2-0.9-4.5-1.3-6.8-1.2c-3.8,0-6.9,0.8-9.2,2.4
							c-2.2,1.5-3.8,3.7-4.4,6.3l0,0l6.9,2.1c0.3-1.5,1.2-2.8,2.4-3.7c1.1-0.8,2.5-1.2,3.9-1.1c1.4-0.1,2.8,0.5,3.8,1.4
							c1,1.1,1.6,2.5,1.5,4l0,0v1.1l-10.2,2.1c-2.1,0.3-4.2,1.2-5.8,2.6l-0.3,0.2c-1.4,1.4-2.2,3.4-2.1,5.4
							c-0.1,1.6,0.4,3.1,1.2,4.4c0.8,1.2,2,2.2,3.4,2.7C246,211.7,247.8,212,249.6,212z M251.7,206.2c-0.9,0-1.9-0.2-2.6-0.8
							c-0.7-0.5-1.1-1.4-1.1-2.3c-0.1-0.9,0.3-1.7,1-2.2c0.9-0.6,2-0.9,3.1-1.1l0,0l6.2-1.2v1.8c0,0.8-0.1,1.7-0.4,2.4l-0.1,0.3
							c-0.3,0.7-0.8,1.3-1.5,1.8c-0.6,0.4-1.4,0.8-2.1,0.9C253.3,206.1,252.5,206.2,251.7,206.2L251.7,206.2z M283.6,212
							c1,0,2-0.1,3-0.3c0.9-0.2,1.7-0.5,2.5-0.9l0,0l0.7-5.3c-0.7,0.2-1.2,0.4-1.7,0.4c-0.5,0.1-1.1,0.2-1.7,0.1
							c-0.9,0.1-1.7-0.2-2.4-0.8c-0.6-0.9-0.8-1.9-0.7-2.9l0,0v-33.6h-8.1v34.4c0,3.1,0.7,5.3,2,6.7
							C278.6,211.2,280.7,212,283.6,212z M94.8,280.8l3.2-9.5h15.1l3.2,9.5h8.5l-14.3-39.2h-9.8l-14.3,39.2H94.8z M111.1,265.2H100
							l3.8-11.2l1.7-5.8h0.1l1.8,5.9L111.1,265.2z M133.9,246.9c1.4,0.1,2.7-0.3,3.8-1.1c0.9-0.8,1.3-2,1.2-3.2
							c0.1-1.2-0.4-2.4-1.2-3.3c-2.3-1.5-5.3-1.5-7.6,0c-0.9,0.9-1.3,2.1-1.2,3.3c-0.1,1.2,0.4,2.4,1.2,3.2
							C131.2,246.6,132.5,247,133.9,246.9z M137.9,280.8v-29.7h-8.1v29.7H137.9z M157.7,281.4c1.7,0,3.4-0.4,5-1.1
							c1.5-0.7,2.8-1.8,3.7-3.2c0.4-0.6,0.7-1.2,1-1.8v-0.1l0.3,5.7h7.3v-42.7h-8.1v18.1l-0.1-0.1c-0.5-1.1-1.3-2.1-2.2-3l-0.3-0.3
							c-1.8-1.5-4.1-2.3-6.5-2.2c-2.3,0-4.6,0.6-6.6,1.8c-2,1.3-3.6,3.1-4.7,5.3c-1.2,2.6-1.7,5.5-1.6,8.3c-0.1,2.8,0.5,5.6,1.6,8.2
							c1,2.2,2.5,4,4.5,5.3C153.1,280.8,155.4,281.4,157.7,281.4L157.7,281.4z M226.7,237.9l22.8,23.5L227,284.6l0.6-5.4l-2.1-5.9
							h2.1v-4.5l-1.6-3.5l-0.8,1.2L222,260l-4.9-1.7l-3.9-6.3L226.7,237.9z M160.2,256.8c1.3,0,2.6,0.3,3.6,1.1
							c1.1,0.8,1.9,1.8,2.4,3c0.6,1.5,0.9,3.2,0.8,4.8c0,1.7-0.3,3.5-0.9,5.1c-0.5,1.3-1.3,2.4-2.4,3.2c-1.1,0.7-2.4,1.1-3.7,1.1
							c-2,0.1-3.9-0.8-5.1-2.3c-1.2-1.6-1.8-3.9-1.8-6.9s0.6-5.3,1.9-6.9C156.3,257.5,158.2,256.7,160.2,256.8L160.2,256.8z"/>
					</g>
				</g>
			</g>
		</g>
		<path class="st0" d="M613.8,378.3c1.7-2.3,1.3-3.3,0.4-3.8c-1.1-0.7-1.1-2.1-2.5-2.7s-2.2-1.7-3.3-2.5s-2.1-1.3-3.2-1.9
			c-1.1-0.6-2.2-1-3.5-1.3c-3.8-1-7.5-2.6-11.5-2.8c-1.5-1-3.2-0.3-4.7-0.7c-3.8-1-7.6-0.3-11.4-0.7c-1.7-0.2-3.5-0.2-5.2,0
			c-2.1,0.2-4.3-0.4-6.3,0.1c-2.9,0.8-6.1,0.4-8.9,1.9c-3.2-0.2-6,1.1-8.8,2.1c-6.1,2.2-11.8,5.1-16.1,10.2c-0.8,1.2-1,2.7-0.7,4.2
			c0.1,1.2,0.1,2.4,0,3.7c0,0.2-0.2,0.4-0.3,0.5c-0.1-0.1-0.3-0.3-0.4-0.5c-2.4-4-1.7-9,1.7-12.2c4.2-4,9.2-7,14.8-8.6
			c1.9-0.6,3.8-1.1,5.6-1.7s3.8-0.8,5.7-1.5c1.4-0.5,3.1-0.3,4.7-0.7c2.2-0.5,4.5-0.7,6.7-0.7c2.2-0.1,4.4,0,6.7,0
			c1.8,0,3.6-0.1,5.3,0s3.4-0.4,5.1,0.5c1.5,0.8,3.5-0.5,5,0.8c2.5-0.2,4.8,0.8,7.1,1.3c5.7,1.4,11.2,3.7,16.2,6.9
			c0.7,0.4,1.1,1.1,1.7,1.6s1.2,1.8,1.8,1.1s-0.8-1.3-1.3-2c-0.8-1-1.7-2-2.6-2.9c0.6,0,1.4,0.3,1.3-0.9c0-2.8,6.4-159,6.7-163.4
			c0.1-1.4,9.3-22.2,10-24.2c0.2-0.2,0.5-0.4,0.8-0.4c0.2,0,0.5,0.4,0.5,0.6c0.9,2.8,7,18.1,9.2,22.9c0.1,0.4,0.2,0.8,0.2,1.3
			c0.2,7.5,7.9,172.8,8,176.2c0,0.2,0.2,0.5,0.3,0.5c0.3,0.1,0.6,0,0.9-0.2c1-1,1.6-2.3,1.5-3.7c0-1.9,0-1.9,2.2-2.7
			c0.3-0.1,0.5-0.4,0.8-0.6c0.5-0.3,1.1-0.6,1.6-1c-0.4-0.4-0.9-0.8-1.3-1.1c-1.2-1.2-1.6-3-1-4.6c0.1-0.3,0.4-0.6,0.4-0.8
			c-0.2-1.9,0.7-3.5,2.4-3.9c2.3-0.4,4.8-0.4,6.5,1.8c0.2,0.3,0.4,0.7,0.4,1.1c0,0.3,0,0.7,0,1c0.2,1.8,0,3.5-1.7,4.7
			c-0.7,0.5-0.5,1.1,0.5,1.3c1.8,0.3,3.2,1,3.8,2.9c0.1,0.4,0.2,0.8,0.5,1.1c0.5,0.5,1.2,1.3,1.8,1.3c1.1-0.1,0.5-1.2,0.5-1.9
			c-0.2-1,0.4-2.1,1.4-2.5c1.1-0.5,1.7,0.1,1.8,0.6c0.2,0.8,1.1,2.2-0.8,2.5c-0.3,1.1-0.7,2.2-1,3.3c-0.1,0.4,0,0.9-0.2,1.2
			c-0.4,0.8-1.4,1.1-2.2,0.7c-0.1-0.1-0.2-0.1-0.3-0.2c-0.3-0.2-0.5-0.5-0.7-0.7l-1.7-1.5c-0.5,0.6-0.5,1.6,0.2,2.1
			c0.1,0.1,0.1,0.1,0.2,0.1c-1.3,2-0.5,4.3-0.6,6.4c0.1,1.6,0.3,3.2,0.6,4.7c0.1,1.2,0.2,2.3-1,3.3c-0.7,0.7-0.7,1.8-0.1,2.5
			c0,0,0.1,0.1,0.1,0.1c1.2,0.9,1.1,2.3,1.5,3.4s1,2.2,1.6,2.3c2.2,0.1,2.8,1.9,3.6,3.2c0.6,1,1.7,1.7,2.9,1.8
			c0.5,0.1,1,0.3,1.5,0.5c0.9,0.3,2.3,0.1,2.4,1.2c0.2,1-0.2,2.1-0.9,2.8c-1.2,0.8-0.3,2-1,2.8c-0.2,0.2,0,1-0.2,1.2
			c-0.6,0.6-1.3,1.5-2,1.4c-0.9,0-1.2-1-1.2-2c0.1-0.4-0.1-0.8-0.3-1.2c-0.8-0.6-1.2-1.6-1-2.6c0.1-0.9-0.4-1.7-1.2-2.1
			c-0.9-0.6-1.6-1.7-2.5-1.9c-1.2-0.3-1.4-1.1-1.8-1.9c-0.1-0.3-0.4-0.6-0.7-0.7c-1.8-0.4-3.4-1.3-4.6-2.6c-0.2-0.2-0.6-0.1-0.9-0.1
			c0,0.4-0.2,0.9-0.1,1.1c0.7,1,0.8,2.3,0.2,3.4c-0.7,1.2-0.6,2.8,0.3,3.9c0.8,1.2,1,2.7,0.6,4c-0.5,1.3,0.2,1.8,1,2
			c3.5,1.1,6.7,2.8,9.7,4.9c1,0.7,2.3,1.1,3.1,2.1c2,2.4,5.4,3.4,6.6,6.5c3.4,3.2,5.8,7,8.2,10.9s37.1,68.4,39.9,73.9
			c0.1,0.4,0.3,0.8,0.5,1.1c0.4,0.5,0.8,0.8-0.2,0.9c-0.7,0-1.3,0-2,0h-78.1c-0.7,0-0.9-0.2-1.3-0.9c-3.5-4.8-15.2-21-18-23.9
			c-2.4-2.7-5.5-4.5-9-5.3c-4.4-0.9-8.9-1.3-13.5-1.4c-28.8,0.1-57.6,0.1-86.4,0c-7.5-0.1-14.8-2.4-20.9-6.8
			c-3.3-2.3-47.8-50.8-49.4-54.5c-1.2-2.8-1.5-5.9-0.9-8.9c0.8-2.7,2.5-5,5-6.5c3.6-2.4,10.6-1.6,13.8,1.1c2.7,2.3,31.9,30.4,35,33
			c2.2,1.8,4.5,3.5,6.9,5c1,0.6,2,1.2,3,1.6c2.6,1.1,5.3,1.5,8.1,1.4c30.9,0,61.8,0,92.8,0c2.1,0.1,4.3-0.6,5.9-2
			c1.9-1.4,2.2-4,0.9-5.9c0,0-0.1-0.1-0.1-0.1c-1.6-1.9-4-2.9-6.5-2.8c-23,0-46,0-69.1,0c-0.2,0-0.4,0-0.7,0c-1,0.1-2,0.2-2.9,0.3
			c0-0.1,0-0.2,0-0.3c0.4-1.6,2.4,0.1,2.9-1.3c2.5,0.2,4.7-1.1,7.1-1.4c1.4-0.1,2.6-1,4.1-0.7c1.2,0.2,2.3-0.8,3.7-0.7
			c1,0,2-0.3,2.8-1.1c0.3-0.4-0.4-1.7-0.6-2.6c-0.2-0.6-0.4-1.2-0.6-1.8c0-0.1,0-0.2,0-0.3c-0.5-3.5,0.3-7.1,2.2-10.1
			c0.3-0.4,0.6-0.7-0.2-0.8c-0.8,0-1.7,0.2-2.4,0.5c-1.4,0.5-3.1,0.4-4.7,0.7c-2.2,0.4-4.3,0.8-6.5,1.3l-6.2,1.5
			c-2.2,0.5-4.5,1.1-6.7,1.5c-4.3,0.8-13,4.2-16.6,6.7c-0.5,0.4-1,0.9-1.4,1.4c-0.4,0.6-0.9,1.2-1.5,1.8c-0.1,0.1-0.2-3.5,0.3-4
			c0.2-0.2,0.5-0.4,0.8-0.5c4.3-2.4,8.9-4.3,13.6-5.7c4.1-1.2,8.1-2.9,12.5-3c2.5-1.2,5.4-0.7,7.8-2c0.2-0.1,0.4,0,0.7,0
			c2.7-0.2,5.4-0.3,8.1-0.7c1.7-0.4,3.4-0.6,5.1-0.6c0.2,0,0.3-0.3,0.5-0.4l0.5-0.5c-0.2-0.1-0.5-0.4-0.7-0.4
			c-1.1,0.1-2.2,0.2-3.3,0.4c-0.4,0-0.8,0.3-1.2,0.3c-2.9-0.4-5.7,0.4-8.4,0.8c-4.9,0.8-10,1.2-14.7,3.1c-4.4,0.1-8.2,2.2-12.3,3.5
			c-3.1,1.1-6.1,2.4-9,4c-1.3,0.5-2,1.8-1.8,3.2c0.2,2.3,0,4.7,0,7c0,1-0.5,1.5-1.4,1.1c-2.3-0.9-4.5-1.9-6.7-3.1
			c-3-1.7-5.4-4.2-8-6.5c-4.2-3.8-24-22.3-25.5-23.7s-2.8-2.6-4.4-3.9c-2.3-1.9-4.6-3.9-5.8-6.9c-0.2-0.5-0.1-1,0.1-1.4
			c0.7-2.4,2.7-2.8,4.6-3.2c1-0.3,2.6,0.4,3.2-0.1c1.1-1,1.7,0.3,2.5,0.2c1.7-0.2,3.1,0.9,4.7,1.5c4,1.5,29.5,26.6,32.5,29.3
			c1.8,1.7,3.7,3.4,5.7,4.9c1,0.7,1.4,0.1,0.5-0.8c1-0.6,0.4-1.6,0.7-2.4c0.8-2.9-1.2-4.4-3-5.7c-1-0.7-13.9-12.1-14.6-12.9
			c-0.8-0.8-1.4-1.8-1.8-2.9c-0.4-1-0.1-2.2,0.6-3c1-1.2,2.4-1.9,3.9-2c2.1-0.3,4.2-0.3,6.3,0c1.9,0.5,3.7,1.1,5.5,2
			c0.1,0,0.2,0.3,0.3,0.5c0.2,0.4,0.3,0.9,0.4,1.3l0.9-1.3c1.8-2.4,4.1-4.4,6.7-6c4.2-2.6,8.8-4.6,13.6-5.9
			c3.8-1.2,7.6-2.2,11.5-2.8c2.8-0.4,5.6-0.9,8.4-1.4c2.4-0.4,4.8-0.1,7.1-0.6c3.9-0.9,7.8-0.5,11.8-0.6s8-0.1,12,0
			c1.6,0.1,3.2,0.3,4.7,0.6c1.6,0.2,3.1-0.1,4.8,0.5c1.5,0.4,3.1,0.7,4.7,0.8c3.2,0.5,6.3,1.5,9.4,2.3c0.4,0.1,0.8,0.4,1.2,0.4
			c0.3,0.1,0.6,0,0.8-0.3c0.1-0.3,0.1-0.6-0.1-0.9c-0.7-0.9-1.5-1.6-2.4-2.1c-2.1-1-2.3-2.9-2.7-4.7c-0.1-1.2-0.1-2.4,0-3.7
			c0-0.5,0.1-1.1,0.2-1.6c0.4,0.5,1,1.1,1.1,1.6c0.2,1.6,0,3.3,0.1,5c0,0.2,0.2,0.4,0.3,0.5c0.1-0.1,0.4-0.3,0.4-0.4
			c0.1-1.8,0.1-3.6,0-5.3c-0.1-1.5-1.1-2.8-2.6-3.2c-0.6-0.2-0.7-0.1-0.7,0.4c0,2.7,0,5.3,0,8c0,0.2-0.2,0.4-0.2,0.6
			c-0.1-0.2-0.4-0.5-0.4-0.7c0-1.7,0.1-3.4,0-5c-0.1-1.3-0.3-2.5-0.7-3.7c-0.2-0.5-0.8-0.9-1.4-1.2s-1-0.3-1.4-0.5s-0.9-1.3-1.6-0.6
			c-0.4,0.5-0.5,1.2-0.2,1.8c1.3,2.6,0.3,5.4,0.6,8.1c0,0.2-0.2,0.4-0.3,0.5c-0.1-0.1-0.3-0.3-0.3-0.5c-0.1-0.6-0.1-1.1,0-1.7
			c0.5-2.6-0.8-5.1-0.7-7.7c0-1.1-1.4-1.9-2.7-1.8c-0.3,0-0.7,0.4-0.9,0.3c-0.7-0.4-1.4-0.8-2.1-1.3c-0.2,0.9-0.3,1.9-0.3,2.9
			c0,1.5-0.2,3,0.6,4.4c0.5,0.9,0.1,2.2,0.1,3.3c0,0.2-0.3,0.4-0.4,0.6c-0.1-0.2-0.2-0.4-0.2-0.6c0.2-2.7-1-5.3-0.7-8.1
			s-1.2-3.7-3.8-3c-0.5,0.1-0.7,0.2-1-0.2c-0.6-0.8-1.1-0.9-2.2-0.3c-0.8,0.4-2.1-0.7-3.3-0.5c-0.8,0.1-1.8-0.2-1.8,1.1
			c-0.4,0-0.7,0-1.1,0c-0.1-0.8-0.3-1.1-1.2-1.1c-0.9,0-1.9-0.3-2.7-0.8c-0.6-0.7-1.7-0.7-2.4-0.1c0,0-0.1,0.1-0.1,0.1
			c-0.5,0.3-1,0.5-1.6,0.5c0-0.5-0.1-1.1-0.1-1.6c-0.1-0.8,0.4-0.9,1-0.8c1.6,0.2,3.2-0.5,4.8,0.6c0.5,0.4,1.5,0.1,2.3,0
			c3.3-0.3,6.5,0,9.7,0.8c5.8,1.2,11.7,2.5,17,5.6c2.7,1.7,5.1,3.7,7.2,6C614.2,375.9,614,376.4,613.8,378.3
			c-0.1,0.6-0.2,1.2-0.4,1.7c0,1.1,0.1,2.2,0.2,3.3c0,0.3,0.6,0.5,0.9,0.8c0.1-0.3,0.2-0.6,0.2-0.9c-0.2-1.9-0.4-3.8-0.7-5.7
			c-0.1-0.2-0.2-0.5-0.3-0.7c-0.1,0.3-0.3,0.6-0.3,0.9C613.4,378.3,613.4,379.1,613.8,378.3z M636.8,412.7c2.1,0.5,3.9-1.1,6.1-0.7
			c1.3,0.2,1.4,0,1.2-1.6c-0.1-1,0.6-2.3-0.5-3.1c-0.7-0.6-1-1.5-0.8-2.3c0-3.8,0.5-7.8-1.9-11.2c-0.4-0.8-0.4-1.8,0-2.6
			c0.2-0.4,1.3-0.3,2-0.4c0.5-0.1,1-0.3,1.4-0.6c1.2-0.6,1.3-0.9,0.8-2c-0.5-1-0.9-2.1-1.3-3.2c-0.2-0.8-0.8-2-2.2-1.6
			c-0.7,0.2-1.1-0.2-0.9-0.9s-0.6-1.7,0.8-1.7c0.7,0,1.2,0,1.2-1c0-2.1-1.1-4-0.8-6c0-0.1-0.3-0.3-0.4-0.5c-1-2.1-1.1-4.6-0.3-6.8
			c0.5-1.5,0.4-3-0.2-4.5c-0.8-1.8-1.6-3.4-3.6-4c-0.3-0.1-0.7-0.6-0.7-0.8c0.5-1.2,0.7,0.2,1,0.2c0.7-0.1,1.3,0,2,0
			c1.9-0.2,2.3-0.8,2.3-3.1c0-0.3,0.3-0.6,0.6-0.9c0.6-0.5,1.2-0.9,1.7-1.4c0.2-0.3,0.2-0.7,0.1-1.1c-0.2-0.7-0.4-1.4-0.7-2
			c-0.6-1.5-2.1-2.4-3.7-2.1c-0.9,0.2-1.7,1.3-2.4,1.1s-1.3-1.1-2.5-1.3s-1.8-1.1-2.8,0.1c-0.2,0.2-0.6,0-1,0
			c-0.9,0.1-2.1-0.2-2.5,0.3s-0.2,1.7-0.2,2.5c0,1.8-0.1,3.6,0,5.3c-0.1,1.3,0.6,2.5,1.7,3.1c0.9,0.4,0.9,0.4,0.6,0.7
			c-0.7,0.8-1.4,1.6-1.8,2.6c-0.9,2.3-0.4,4.5-0.5,6.8c-0.1,1.9,0.3,3.9-1.1,5.6c-0.3,0.3-0.2,1-0.2,1.5c0,1.6,0,3.1,0,4.7
			c0,0.5-0.1,1.1-0.3,1.5c-0.6,1.5-1.3,3-2,4.5c-0.8,1.6,0.3,3.5-1,5c-0.3,0.3-0.1,1.4,0.2,1.8c1.3,1.9,2.7,3.8,4.2,5.6
			c0.9,1.1,2.2,1.9,3,3.1s2.5,2.4,1.8,4.2c-0.5,1.2-0.5,2.8-1.9,3.6c-0.4,0.2-0.8,1.1-0.7,1.3c0.4,0.5,0.9,0.8,1.5,1
			c0.9,0.3,1.8-0.1,2.3-0.8c0.6-0.9,1.3-1.7,1.8-2.6s2.2-0.9,2.4-2.3c0-0.1,0.6-0.3,0.8-0.2c0.2,0.2,0.4,0.5,0.3,0.8
			c-0.4,2.1-1.5,3.8-3.6,4.4c-1,0.3-1.8,0.7-1.6,1.6C635,413.3,636.2,412.5,636.8,412.7L636.8,412.7z M561.9,385.4
			c-1.6,0.1-3.2,0.3-4.8,0.5c-2.9,0.5-5.8,1-8.8,1.4c-4,0.6-7.7,1.9-11.6,2.8c-2.7,0.6-5.2,1.9-7.9,2.8s-4.9,2.7-7.3,4
			c-1.7,0.9-2.9,2.7-4.3,4.2c-0.4,0.6-0.7,1.3-0.7,2c0,1,0,1.9,0.2,2.9c0.3-0.8,0.7-1.6,1.2-2.2c1.7-1.5,3.4-3,5.2-4.3
			c1.3-1.1,2.7-1.9,4.3-2.5c2.5-0.6,4.5-2.1,7-2.5c3-0.5,5.8-2.5,9-2.3c0.7-1.4,2.3-0.1,3.2-1.1s2.2,0.1,3.4-0.6
			c0.9-0.6,2.5,0.1,3.5-0.4c1.7-0.7,3.6-0.1,5-0.7c1.8-0.7,3.4-0.4,5.1-0.5c1.8-0.3,3.6-0.6,5.4-0.6c7.5,0.3,15-0.7,22.4,0.6
			c2.5,0.5,5.2,0.2,7.7,0.8c3,0.7,6.2,1.1,9.2,2c3.1,0.9,6.1,2,9,3.3c1.7,0.9,3.2,1.9,4.7,3.1c0.1,0.1,0.3,0,0.4-0.1
			c0.1-0.2,0.2-0.5,0.1-0.6c-0.3-0.4-0.8-0.8-1.1-1.2c-1.6-3-4.5-5.2-7.8-5.9c-1.5-1.5-3.7-1.3-5.5-2c-2.1-0.8-4.2-1.2-6.4-1.4
			c-1.6,0-3.2-0.3-4.7-0.7c-1.6-0.6-3-0.3-4.5-0.5c-1.6-0.3-3.1-0.5-4.7-0.6C579.3,384.9,570.6,384,561.9,385.4L561.9,385.4z
			 M648.8,391.1c0,1.6,0,2.9,0,4.3c0,1.3,0.2,2.5,0.6,3.7c0.2,1.3,0.2,2.7,0.1,4v4c0,1.2,0,2.4,0,3.7c0,0.4,0.1,0.8,0.3,1.2
			c0.2,0.3,0.6,0.6,0.9,0.5c2.1-0.5,3.5-2.1,5.3-3.3c0.3-0.3,0.3-0.8,0.2-1.2c-0.8-1.1-0.4-2.3-0.7-3.4s0-2.5-1.1-3.3
			c-1.2-1-1.1-2.1-0.4-3.4c0.5-0.9,0.5-2.1,1-2.9c1.2-1.9,0.3-3.4-0.6-5c-0.4-0.6-0.9-0.8-1.6-0.2s-1.2-0.4-1.1-0.8
			c0.4-1.4,0.8-2.8,1.4-4.1c0.1-0.4,0.5-1,0.4-1.1c-1.2-1,0-2.9-0.8-3.3s-1.9,1-3.1,1.2c-1.5,0.3-1.9,0.9-1.3,2.6
			C649,386.7,648.7,389,648.8,391.1L648.8,391.1z M559.4,401.9v5.6c0,1.7-0.1,3.3,0,5c0,0.9,0.3,1.8,0.8,2.6
			c0.3,0.4,1.4,0.2,2.2,0.3c1,0.1,1.1-0.5,1-1.2c-0.2-2-0.6-4-0.6-6c-0.1-5.3,0-10.6,0-16c0-1.5,0-1.5-1.7-1.5c-0.1,0-0.2,0-0.3,0
			c-0.9-0.1-1.4,0.1-1.4,1.2C559.4,395.2,559.4,398.5,559.4,401.9L559.4,401.9z M570.7,410.7c0,1.1,0,2.2,0,3.3
			c0,0.3,0.2,0.6,0.4,0.7c0.7,0.4,1.6,0.1,2-0.6c0.1-0.2,0.2-0.5,0.2-0.7c0-6.3-0.1-12.7,0.1-19c0-1.2-1.8-2.3-0.2-3.4
			c-0.2-0.2-0.4-0.6-0.7-0.7c-1.7-0.8-2.5-0.3-2.6,1.6c0,0.5,0,1.1,0,1.7C570.1,399.3,569.7,405,570.7,410.7L570.7,410.7z
			 M581.4,407.4c0,1.8,0.1,3.5,0,5.3c-0.1,1.4,0.5,1.5,1.5,1.4c0.2,0,0.4,0,0.7,0c1.1,0.2,1.3-0.4,1.2-1.4c0-1.6-0.2-3.2-0.5-4.7
			c-0.5-2-0.2-4.2-0.1-6.3c0.2-3.7-1.2-7.3-0.7-11c0-0.2-0.1-0.5-0.2-0.5c-0.6-0.1-1.3-0.2-1.9-0.1c-0.3,0.1-0.5,0.9-0.5,1.3
			c0.2,3.5-0.4,6.9,0.6,10.4C581.8,403.5,581.4,405.5,581.4,407.4L581.4,407.4z M549.4,404.4c0,3.8,0,7.5,0,11.3c0,0.4,0.3,1,0.4,1
			c0.8,0,1.7,0.4,2.5-0.5c0.6-0.5,0.7-1.4,0.2-2c-0.7-0.8-0.4-1.7-0.4-2.5c0-6.2,0-12.4,0-18.6c0-1.4-0.8-1-1.5-1s-1.2,0-1.2,1
			C549.4,396.8,549.3,400.6,549.4,404.4L549.4,404.4z M542.7,404c0-3.2,0-6.4,0-9.6c0-0.7-0.1-1-0.9-1s-1.1,0.1-1.2,1.1
			c-0.2,3.4,0,6.7-0.5,10.1c-0.6,4.5-0.2,9.1-0.1,13.6c0,0.2,0.5,0.6,0.5,0.6c0.8-0.4,1.7-0.8,2.4-1.4c0.1-0.1-0.4-1-0.3-1.2
			c1-0.9-0.1-1.7,0-2.5c0.1-1.1,0-2.2,0-3.3L542.7,404L542.7,404z M592.1,406.8c-0.1,1.3-0.1,2.7,0,4c0.1,0.6,0.2,1.3,0.3,2
			s2.1,1.1,2.6,0.7c0.7-0.6,0.5-1.3,0-2c-0.2-0.4-0.3-0.8-0.3-1.2c-0.1-3.2,0.2-6.5-0.6-9.7c-0.4-1.5,0-3.1-0.1-4.6
			s-0.5-2.9-0.6-4.4c-0.1-0.8-0.6-0.8-1.1-0.8c-1.2,0.2-1.5,0.8-1.1,2.1c0.1,0.3,0.2,0.6,0.2,0.9C591,398.1,592,402.4,592.1,406.8
			L592.1,406.8z M534.7,407.8v-10.6c0-0.4,0-0.9,0-1.3c-0.2-0.1-0.4-0.1-0.6-0.1c-0.3,0.6-1.5,0-1.5,1.4c0,4.6,0.3,9.1-0.5,13.7
			c-0.5,2.8-0.1,5.7-0.1,8.6c-0.1,0.3-0.1,0.7,0,1c0.2,0.2,0.4,0.4,0.8,0.4c1.1-0.1,2-1.1,1.9-2.3c0,0,0,0,0-0.1
			C534.7,414.9,534.7,411.3,534.7,407.8L534.7,407.8z M526,412.8c0,3.1,0,6.2,0,9.3c0,1.1,0.5,0.3,0.9,0.2c1-0.1,1.1-0.7,1.1-1.5
			c0-5.6,0-11.3,0-16.9c0-0.8-0.3-1.7,0.4-2.5c0.4-0.5-1.1-1.4,0.1-2.1c0.1-0.1-0.1-0.7-0.1-1.1c-0.4,0.1-0.9,0.2-1.1,0.4
			s-0.3,1-0.6,1.4c-0.7,0.9,0.3,2-0.1,2.4c-0.8,0.9-0.6,1.8-0.6,2.8C526,407.6,526,410.2,526,412.8L526,412.8z M523.4,412.1
			c0-3.5,0-7.1,0-10.6c0-0.2-0.1-0.4-0.2-0.6c-0.2,0.1-0.3,0.1-0.5,0.2c-0.9,0.6-1.4,1.7-1.4,2.8c0.1,2.8,0,5.5,0,8.3
			c0,3.9,0,7.8,0,11.6c0,1,0,0.9,1,0.5s1-0.8,1-1.6C523.3,419.1,523.3,415.6,523.4,412.1L523.4,412.1z M601.5,407.7
			c0,1.1,0.1,2.2,0,3.3c0,0.8,0.4,1.5,1.2,1.8c0.6,0.2,1.2,0,1.4-0.6c0.1-0.1,0.1-0.3,0.1-0.4c0-1.1-0.2-2.1-0.6-3.1
			c-0.3-1.4,0-2.9-0.1-4.3s-0.6-2.7-0.6-4.1c0-2.5-0.2-4.9-0.7-7.4c-0.2-0.7-0.3-0.9-1-0.9s-1.1,0.1-1,0.9c0.1,1.4-0.2,2.8,0.7,4.1
			C600.2,400.5,601.6,404,601.5,407.7L601.5,407.7z M609.5,407.3c0,1.4,0,2.7,0,4c0.1,0.4,0.4,0.6,0.7,0.7c0.6,0,1.3-0.1,1.9-0.3
			c-0.2-0.5-0.4-0.9-0.6-1.4c0-0.1,0-0.2,0-0.3c0-1.4,0-2.9,0-4.3s-0.8-2.8-0.8-4.4c0-2.3-0.2-4.5-0.6-6.7c-0.1-0.9-0.8-0.5-1.3-0.6
			c-0.8,0-0.8,0.5-0.6,1.1c0.1,0.4,0.6,0.8,0.5,1.1C608.3,400,609.7,403.6,609.5,407.3L609.5,407.3z M616.2,405.6H616
			c0.3,2,0.6,4,0.9,6c0,0.2,0.5,0.4,0.7,0.4s0.4-0.4,0.6-0.6c0.1-0.1,0-0.2,0-0.3c0.3-3.9-1.1-7.8-0.7-11.7c-0.8-0.9-0.7-2-0.7-3
			c0-0.1-0.4-0.3-0.5-0.3s-0.7,0.2-0.7,0.4c-0.1,0.4-0.1,0.9,0,1.3C615.7,400.4,615.9,403,616.2,405.6L616.2,405.6z M520,415
			c0-1.3,0-2.7,0-4c-0.1-2.1-0.2-4.1-0.2-6.2c-1,1.9-0.1,4-0.5,5.9c-0.3,0.8-0.5,1.6-0.6,2.4c-0.1,4.1,0,8.2,0,12.3
			c0,0.2,0.1,0.4,0.2,0.6c0.2-0.2,0.6-0.3,0.7-0.5c0.2-0.6,0.4-1.2,0.4-1.8C520,420.8,520,417.9,520,415z M622.8,407.2h0.1
			c-0.3-2.5-0.5-4.9-0.8-7.4c-0.1-0.2-0.2-0.4-0.3-0.5c-0.2-0.2-0.5-0.4-0.7-0.6c-0.1,0.2-0.2,0.4-0.3,0.6
			c-0.1,3.6,1.1,7.1,0.7,10.7c0,0.2,0.1,0.4,0.2,0.6c0.4,0.3,1,0.9,1.3,0.7c1-0.4-0.3-0.7-0.2-1.1
			C622.8,409.3,622.8,408.2,622.8,407.2L622.8,407.2z M612.8,380.5h0.2c-0.3-1.9-0.6-3.8-1-5.6c-0.1-0.3-0.6-0.5-0.9-0.8
			c-0.1,0.3-0.2,0.6-0.3,0.9c0.2,2.5,0.4,4.9,0.7,7.4c0,0.1,0.1,0.2,0.2,0.2l0.7,0.7c0.1-0.2,0.3-0.5,0.4-0.7
			C612.8,381.9,612.8,381.2,612.8,380.5L612.8,380.5z M625.5,408.3h0.1c-0.3-2.1-0.5-4.2-0.8-6.3c-0.1-0.2-0.1-0.4-0.2-0.6
			c-0.1,0.2-0.4,0.4-0.4,0.6c0.1,2.3-0.4,4.7,0.6,7c0.2,0.7,0.3,1.5,0.3,2.2c0.8-0.6,0.2-1.5,0.4-2.3
			C625.5,408.8,625.5,408.6,625.5,408.3L625.5,408.3z"/>
		<path class="st0" d="M570,340.5c0-2,0-4,0-6c0-0.2,0.2-0.4,0.3-0.5c0.1,0.2,0.3,0.3,0.3,0.5c0,0.9,0.2,1.9,0.6,2.8
			c0.4,1-0.2,2.5,1.8,2.1c1,2,3.1,3.5,3,6.1c0,0.4,0,0.9,0,1.3c0,0.2,0.2,0.3,0.3,0.5c0.1-0.2,0.3-0.4,0.3-0.5
			c0-1.5,0.4-3.2-0.1-4.6c-0.3-1.4-0.5-2.7-0.6-4.1c-0.2-0.7-0.4-1.4-0.6-2.1c0-0.2,0.1-0.4,0.2-0.6c0.2,0.1,0.3,0.2,0.5,0.3
			c0.1,0.1,0.2,0.1,0.2,0.2c0.8,2,2.1,3.7,3.7,5.1c-0.4,1.3,1.2,0.6,1.3,1.4c0.2,1.2,0.5,2.5,0.7,3.7s-0.3,2.6,0.7,3.8
			c0.1,0.1-0.2,0.7-0.4,0.7c-1,0.1-2.2,0.4-3,0c-1.7-1-3.4-0.5-5.1-0.6c-2.4-0.1-4.9,0-7.3,0c-0.8,0-1.7-0.3-2.5,0.5
			c-0.4,0.4-1.1,0.3-1.1-0.6c0-3.2-0.3-6.5,0.1-9.6c0.1-1.6,0.3-3.1,0.7-4.7c0.4-0.9,0.9-1.7,1.6-2.3c0.1-0.1,0.2-0.4,0.1-0.5
			c-0.2-0.1-0.4-0.2-0.6-0.2c-0.6,0.2-1.2,0.7-1.7,0.6c-1.7-0.3-3.3,0.4-4.3,1.8c-0.2,0.2-0.8,0.2-1.2,0.3c0-0.3,0-0.7,0-1
			c0.3-1.5,1.5-2.3,2.7-3c0.3-0.2,0.5-0.3,0.8-0.5c0.5-0.3,1.9-0.1,0.5-1.2c0.4-0.4,0.8-0.7,1.3-1c2.3-1.3,4.9-2,7.5-2
			c0.4,0,0.8-0.1,1.2-0.3c-0.3-0.2-0.7-0.3-1.1-0.4c-0.8,0-0.9-0.4-0.9-1c0-2.3,0-4.7,0-7c0-0.2-0.1-0.4-0.2-0.6
			c-0.2,0.2-0.4,0.4-0.4,0.6c0,2.2,0,4.4,0,6.7c0,0.6,0.2,1.3-0.9,1.3c-1.3,0.1-1.1-0.7-1.1-1.5c0-2.1,0-4.2,0-6.3
			c0-0.3-0.4-0.6-0.6-0.9c-0.2,0.3-0.7,0.5-0.7,0.8c0,2.3,0,4.7,0,7c0,0.4,0,0.9-0.1,1.3c0,0.1-0.4,0.2-0.5,0.2s-0.5-0.1-0.5-0.2
			c-0.1-0.5-0.1-1.1-0.1-1.6c0-2,0-4,0-6c0-0.3-0.2-0.5-0.3-0.8c-0.3,0.2-0.5,0.5-0.7,0.7c-0.2,0.2-0.3,0.8-0.3,0.9
			c1.2,0.7-0.5,1.6,0.1,2.1c0.7,0.7-0.3,1.6,0.4,2.2c-0.8,0.5,0.6,1.5-0.5,1.9c0,0.3,0.1,0.6,0.3,0.8c0.7,0.8-0.3,0.8-0.5,1.2
			c-0.2-0.2-0.5-0.5-0.5-0.7c0-1.9,0-3.8,0-5.7c0-0.8-0.3-1.1-1-1.6c-1.5-1.1-1.3-2.4,0-3.8c1.3-1.6,3.2-2.6,5.2-2.7
			c1-0.1,2.3-0.9,3-0.5c0.9,0.5,1.6-0.1,2.4,0.3s2.2,0.1,3.2,0.3c2,0.6,3.1,2.7,2.5,4.6c-0.1,0.2-0.1,0.4-0.2,0.6
			c-1.8,3.1-0.6,6.4-1,9.6c0,0.1,0.8,0.2,1,0.5c1.2,1.7,2,3.8,4.7,4c0.3,0,0.5,0.9,0.7,1.3s0.1,0.7-0.5,0.6c-0.3,0-0.7,0.1-1-0.1
			c-2.3-1.6-5-1.7-7.5-1.8c-0.8,0-1.5-1.2-2.5-0.1c-0.8,0.4-1.8,0.3-2.4-0.4c0,0-0.4,0.3-0.7,0.4c-2.2,0.8-3.1,2.4-3.1,4.7
			c0,0.9,0,1.8,0,2.7c0.1,0.3,0.2,0.5,0.3,0.8c0.1-0.3,0.1-0.7,0.3-0.9c0.3-0.2,0.7-0.3,1-0.4c0.2,1.4,2,2,1.6,3.7c-0.1,1-0.1,2,0,3
			c0,0.5-0.3,1.2,0.6,1.3s0.7-0.6,0.7-1.1L570,340.5z M569,329.5l1.6-0.4c-0.2-0.1-0.4-0.4-0.6-0.4c-0.4,0-0.8,0.1-1.2,0.2
			L569,329.5z"/>
		<path class="st0" d="M605.4,360c2,1.3,3.9,2.8,5.5,4.6c0.2,0.4,0.4,0.9,0.5,1.4c-2.6-2.4-5.6-4.4-8.9-5.8
			c-3.4-1.5-6.9-2.7-10.5-3.5c-2.7-0.5-5.4-0.9-8.1-1.5c-3.8-0.8-7.6-0.3-11.4-0.5c-0.8,0-1.6,0-2.3,0c-1.5,0-2.9,0-4.3,0
			c-1.3-0.1-2.6,0.1-3.8,0.6c-1.3,0.3-2.6,0.6-4,0.7c-4.2,0.7-8.3,1.9-12.3,3.4c-4.1,1.6-9.2,4-12.1,6.2c-0.2,0.1-0.5,0.3-0.7,0.4
			c0-0.4-0.1-0.9,0.1-1.1c2.1-2.1,4.5-3.9,7.2-5.2c3.9-2.1,8-3.8,12.2-5c2.6-0.7,5.2-1.5,7.9-2c1.5-0.3,2.9-0.5,4.4-0.6
			c1.6-0.1,3.2-0.5,4.7-0.6c1.5-0.2,3.1-0.2,4.7,0c4.3,0.8,8.8,0.2,12.9,1.9c5.5,0.3,10.2,2.8,14.8,5.4c0.2,0.1,0.7,0,1,0
			c0.1,0.9,1,1.5,1.9,1.4c0,0,0.1,0,0.1,0L605.4,360z"/>
		<path class="st0" d="M605.4,360h-0.7c-0.1-0.9-1-1.5-1.9-1.4c0,0-0.1,0-0.1,0c-0.4-0.5-0.8-0.9-1.3-1.3c-1.6-1-3.2-1.8-4.9-2.7
			c-0.2-0.1-0.5-0.2-0.5-0.3c0.3-1.6-1.2-2.6-1.4-4.1c-0.4-3.1-1.1-6.2-3.3-8.6c-0.1-0.1,0.1-0.6,0.2-0.9c0.2,0.1,0.3,0.2,0.5,0.2
			c0.5,0.4,0.8,1.5,1.7,0.4c0.1-0.1,0.8,0.2,1.1,0.4c4.3,4.5,8,9.5,9.9,15.5C605,358.2,605.2,359.1,605.4,360z"/>
		<path class="st0" d="M573.5,312.7c-0.6-0.3-1-0.7-1.5-0.7c-1.5,0-2.9-0.8-4.5-0.1c-1.2,0.5-1.4,0-1.1-1.4c0.2-1.2,0.1-2.4,0.3-3.6
			c0-0.6,0.2-1.2,0.5-1.8c1.4-1.4,1-3,0.5-4.5c-0.9-2.5-1.1-2.5,0-5.2c0.4-1,0-0.7-0.5-0.9c-0.2-0.1-0.5-0.8-0.4-1
			c0.4-0.6,1-1.3,1.9-1c0.3,0.2,0.6,0.5,0.7,0.8c0.1,1.2-0.1,2.4,1,3.3c0.4,0.3,0.3,1.4,0.3,2.1s-0.3,1.8,1.1,1.8
			c0,0.4,0.2,0.9,0,1.1c-1.5,1.4-1.6,2.7-0.1,4.2c0.7,0.8,0.7,1.9,0,2.7c-0.5,0.7-0.4,0.9,0.5,1.4s1.2,1.4,1.7,2.1
			C573.9,312.2,573.6,312.5,573.5,312.7z"/>
		<path class="st0" d="M588.5,351.2l-0.9,0.7c-0.5-0.9-1.5-0.3-2.1-0.6c-0.6-0.3-1.2-0.8-1.4-1.4c-0.4-1.7-1.1-3.4-1.3-5.1
			c-0.2-3-1.2-5.9-2.7-8.5c-0.1-0.2,0.1-0.6,0.2-0.9c0.2,0.1,0.4,0.2,0.5,0.3c0.6,1.5,1.9,2.1,3,3c1.6,1.3,2.7,3,3.2,5
			C587.6,346.1,587.8,348.6,588.5,351.2z"/>
		<path class="st0" d="M586.4,338c1.1,0.8,2.1,1.7,3,2.7c2.2,3,3.6,6.6,4,10.3c0,0.3,0.1,0.6,0.2,0.9c0.4,0.5,0.7,0.9,0.1,1.4
			c-0.4,0.2-0.9,0.2-1.3,0.1c-1.2-0.4-2.1-1.3-2.5-2.5c-0.4-1.4-0.8-2.8-1.1-4.2c-0.5-2.8-1.5-5.4-2.9-7.8c-0.1-0.1,0-0.4,0.1-0.6
			S586.3,338,586.4,338z"/>
		<path class="st0" d="M568,371.4c0.4,1.2-0.6,2.8,0.5,4.2c0.3,0.4-0.4,1.6-1,1.7s-1.3,0-2,0s-0.9-0.4-0.9-1c0-2.9,0-5.8,0-8.7
			c0-0.3,0.1-0.6,0.2-0.9c0.4-0.3,0.9-0.5,1.4-0.7c0.7,0.3,1.3,0.8,1.7,1.4C568,368.7,568,370,568,371.4z"/>
		<path class="st0" d="M573.4,371c0-1.1-0.1-2.2,0-3.3c0.1-0.6-0.6-1.6,0.8-1.7c1.7-0.1,2.4,0.4,2.5,1.8c0,0.4,0,0.9,0,1.3
			c0,1.8,0,3.5,0,5.3c0,2.5,0,2.5-2.5,2.3c-0.8-0.1-0.8-0.5-0.8-1.1C573.4,374.1,573.4,372.5,573.4,371z"/>
		<path class="st0" d="M560,373c0,1.1,0,2.2,0,3.3c0,0.5-0.1,1.5-0.2,1.5c-1,0.1-1.9,0.1-2.9,0c-0.1,0-0.2-0.4-0.2-0.5
			c0-2.8,0-5.5,0-8.3c-0.1-0.9,0.6-1.7,1.5-1.8s1.7,0.6,1.8,1.5c0,0.1,0,0.2,0,0.3C560.1,370.4,560,371.7,560,373z"/>
		<path class="st0" d="M585.4,373.7c0,0.7,0,1.3,0,2c-0.1,0.6,0.5,1.4-0.5,1.7c-1,0-2-0.4-2.8-1.1c0-0.2,0-0.4,0-0.7
			c0-0.8,0.1-1.6,0-2.3c-0.1-1.2,0.1-2.5-0.6-3.8c-0.8-1.6,0.2-2.8,1.9-2.9c0.9-0.1,1.6,0.1,1.3,1.2c-0.2,0.6,1.3,1.2,0,1.8
			c0.5,0.4,0.8,1.1,0.6,1.7C585.3,372.1,585.4,372.9,585.4,373.7z"/>
		<path class="st0" d="M552,374.5v3.3c0,1.7,0.2,1.6-1.6,1.6s-1.8,0.2-1.8-1.8s0.1-4,0-5.9c-0.1-0.9,0.2-1.8,1-2.2
			c0.3-0.2,0.5-1.2,1.2-0.3c0.3,0.5,1.4-0.1,1.3,1.1C551.9,371.6,552,373,552,374.5z"/>
		<path class="st0" d="M592.7,373.8c0,0.9,0,1.8,0,2.6c0,0.6,0.5,1.4-0.5,1.6c-0.6,0.2-2.7-0.6-2.8-1.1c0-0.2,0-0.4,0-0.7V369
			c0-1.1,0.7-1.4,1.6-1.7c1.2-0.3,1,0.8,1.4,1.3c0.3,0.4,0.4,1,0.4,1.5C592.8,371.3,592.7,372.5,592.7,373.8z"/>
		<path class="st0" d="M599.4,374c0.1,1.2-0.3,2.7,0.6,3.9c0.1,0.1-0.3,0.7-0.6,1c-0.4,0.6-0.6,0-0.9-0.1c-1.4-0.3-1.8-1.1-1.8-2.5
			c0-1.9,0.5-3.9-0.3-5.8c-0.1-0.3,0.7-1.1,1.1-1.6c0.1-0.1,0.6,0.2,0.9,0.4c0.8,0.5,1.2,1.4,1,2.2
			C599.3,372.4,599.3,373.2,599.4,374z"/>
		<path class="st0" d="M558.7,364c0.6,0,1.1,0,1.7,0c0.2,0.1,0.3,0.3,0.3,0.5c0,0.3-0.2,0.8-0.4,0.8c-0.9,0.1-1.8,0-2.6,0
			c-0.8-0.1-1.6,0.6-1.7,1.4c0,0.1,0,0.2,0,0.3c0,1.2,0,2.4,0,3.6c-0.1,1,0.5,2.2-0.6,3.1c-0.1,0.1,0,0.7,0.2,0.9
			c1.5,0.9-0.8,2.3,0.4,3.2l-0.9,0.9c-0.2-0.3-0.3-0.6-0.3-0.9c0-3.1,0-6.2,0-9.3c0-1.3,0-2.8,0.9-3.6S558,364.2,558.7,364z"/>
		<path class="st0" d="M544.7,375.7c0,1.3,0.1,2.6,0,4c-0.2,0.6-0.5,1.1-0.9,1.6c-0.2,0.1-0.4,0.2-0.6,0.1c-0.2-0.2-0.4-0.4-0.5-0.7
			c0-0.5,0-1.1,0-1.6c0-2.1,0-4.2,0-6.3c0-0.5,0.2-1,0.4-1.5c0.2-0.3,0.7-0.4,1-0.6c0.2,0.3,0.5,0.7,0.5,1
			C544.7,373,544.7,374.3,544.7,375.7z"/>
		<path class="st0" d="M538.7,378.1c0,1.1-0.1,2.2,0,3.3c0.1,0.9-0.2,1.3-1.1,1.5c-0.4,0.1-0.9,0.9-0.9-0.2c0-2-0.1-4,0-5.9
			c0.1-0.7,0.3-1.4,0.7-2c0.3-0.5,0.6-0.9,0.9-1.3c0.2,0.4,0.3,0.9,0.4,1.4C538.7,375.9,538.7,377,538.7,378.1z"/>
		<path class="st0" d="M602.8,374.2c-0.1-0.8-0.1-1.5,0-2.3c0-0.2,0.6-0.5,1-0.5c0.4,0.1,0.7,0.2,1,0.5c0,0,0,0.2,0,0.3
			c0,2.1-0.2,4.3,0.6,6.3c0.2,0.4,0.5,1.4-0.6,1.5c-0.9,0.1-1.3-0.1-1.4-1.2c-0.2-1.6-0.4-3.1-0.8-4.6L602.8,374.2z"/>
		<path class="st0" d="M538.4,370.1c0.1,0.1,0.2,0.1,0.2,0.2s0.1,0.5,0,0.6c-0.3,0.4-0.7,0.8-1.1,1.2c-1.1,1-1.7,2.5-1.5,4
			c0.1,2.3,0,4.7,0,7c0,0.3,0.2,1-0.6,0.6c-0.3-0.2-0.5-0.5-0.5-0.9c0.7-0.6,0.5-1.5,0.4-2.2c0.1-1.8-0.1-3.7-0.5-5.4
			c-0.8-2.6-0.2-3.3,2.6-4.6C537.7,370.5,538,370.3,538.4,370.1z"/>
		<path class="st0" d="M544.7,346c-0.1,0.2-0.2,0.5-0.2,0.5c-1.6,0-1.8,1.4-2.3,2.4c-1.5,3.2-3.3,6.2-3.5,9.9c0,0.2-0.1,0.4-0.3,0.5
			c-0.2,0.3-0.5,0.5-0.7,0.7c-0.1-0.3-0.4-0.6-0.3-0.9c0.2-0.7,0.4-1.4,0.6-2.1c0.9-3.4,2.2-6.6,4-9.6c0.5-0.8,1.2-1.5,1.8-2.1
			c0.1-0.1,0.5,0,0.6,0.1S544.6,345.8,544.7,346z"/>
		<path class="st0" d="M540.7,375.6c0-1.5,0-3.1,0-4.7c0-2.3,0-2.3,2.3-2.9c0.4-0.1,0.8-0.3,1.1-0.5c0.1,0,0.4,0,0.5,0.1
			s0.2,0.5,0.1,0.6c-0.2,0.2-0.5,0.3-0.8,0.4c-0.6,0.3-1.5,0.5-1.8,1.1c-0.4,0.9-0.7,2-0.7,3c-0.1,2.7,0,5.3,0,8
			c0,0.4-0.1,0.8-0.3,1.2c-0.2-0.4-0.3-0.9-0.4-1.4C540.6,378.9,540.7,377.3,540.7,375.6z"/>
		<path class="st0" d="M556.7,348.6c0.9-2.9,0.4-6.6,2-9.9c0.1-0.2,0.3-0.5,0.4-0.7c0.1,0.3,0.3,0.6,0.2,0.9
			c-0.5,1.2-0.7,2.5-0.6,3.7c0.1,1.3-1,2.3-0.7,3.7c0.2,1.3,0.2,2.7,0,4c0,0.3-0.3,0.9-0.5,0.9c-0.8,0.2-0.8-0.5-0.8-1L556.7,348.6z
			"/>
		<path class="st0" d="M551.3,349.8c0.9-3,0.8-6.9,2.7-10.2c0.2-0.5,0.5-0.9,0.8-1.3c0.1-0.1,0.4-0.2,0.5-0.2c0,0.2,0.1,0.5,0,0.7
			c-1.5,2.3-1.6,5.1-2.5,7.6c-0.4,1.7-0.7,3.5-0.8,5.3c-0.1,0.4-0.2,0.7-0.4,1.1c-0.1-0.4-0.2-0.8-0.3-1.2
			C551.3,350.9,551.3,350.3,551.3,349.8z"/>
		<path class="st0" d="M530,381.4c0,1.2,0,2.4,0,3.6c-0.1,0.4-0.2,0.8-0.4,1.1c-0.1,0.2-0.3,0.3-0.5,0.5c-0.2-0.2-0.4-0.4-0.4-0.6
			c0-2.2,0-4.4,0-6.6c-0.1-0.5-0.1-1.1,0-1.6c0.1-0.4,0.6-0.6,0.9-1c0.2,0.3,0.3,0.6,0.4,1C530,379,530,380.2,530,381.4z"/>
		<path class="st0" d="M531.3,380.3c0-1.4,0-2.9,0-4.3c0-0.5,0.2-1,0.5-1.4c0.5-0.5,1.1-0.9,1.8-1.3c0.6,1-0.6,1-0.8,1.6
			c-0.3,1-0.9,1.8-0.8,3s-0.1,2.2,0.1,3.3s-0.8,2.2,0.6,2.9c0,0.2-0.1,0.4-0.2,0.5c-0.2,0.3-0.5,0.5-0.7,0.7
			c-0.1-0.2-0.4-0.5-0.4-0.7C531.3,383.2,531.3,381.8,531.3,380.3z"/>
		<path class="st0" d="M534,380.6c0,1.1-0.1,2.2-0.2,3.2c0,0.1-0.4,0.2-0.5,0.2s-0.6-0.2-0.6-0.3c0-2.2,0-4.4,0-6.6
			c0-0.1,0.5-0.4,0.7-0.4c0.3,0.1,0.5,0.3,0.6,0.5C534,378.4,533.9,379.5,534,380.6L534,380.6z"/>
		<path class="st0" d="M545.3,353.9c0.5-2.7,1.1-5.3,2-7.8c0.1-0.2,0.2-0.5,0.4-0.8c0.1,0.3,0.3,0.6,0.3,0.9
			c-0.7,2.4-1.2,4.9-1.3,7.4c0,0.4-0.4,0.7-0.6,1c-0.1,0.2-0.2,0.4-0.3,0.6c-0.2-0.2-0.3-0.4-0.4-0.7
			C545.3,354.4,545.3,354.1,545.3,353.9z"/>
		<path class="st0" d="M547.3,369.2c0-2.8,0-2.8,2.2-3.2c0.6-0.1,1.1-0.5,1.7-0.6c0.3,0,0.5,0.2,0.7,0.5c0,0.3-0.1,0.6-0.3,0.8
			c-0.2,0.1-0.7,0-1,0c-1.2,0.3-2.2,1.2-2.7,2.3c-0.2,0.5,0.5,1.3-0.5,1.6L547.3,369.2z"/>
		<path class="st0" d="M566.5,363.4c0.9,0,1.8,0,2.6,0c0.1,0,0.2,0.5,0.2,0.9c0,0.1-0.3,0.3-0.5,0.4c-0.2,0-0.4,0-0.6-0.1
			c-2.4-0.8-2.4-0.8-4.3,1.2c-0.3,0.2-0.6,0.3-0.9,0.2c-0.1,0-0.3-0.3-0.3-0.5c-0.2-0.9,0.3-1.8,1.2-2.1c0.1,0,0.2,0,0.2,0
			C564.9,363.3,565.7,363.3,566.5,363.4L566.5,363.4z"/>
		<path class="st0" d="M554.1,336.6c0.1,0,0.3,0,0.3,0s0.2,0.4,0.1,0.4c-0.4,0.4-0.7,0.8-1.2,1.2c-1.1,1-2.2,2-3.3,3
			c0-0.1,0-0.2,0-0.3C549.9,340.3,553,337,554.1,336.6z"/>
		<path class="st0" d="M543.4,351c-0.2,1-0.5,2-0.8,3s-0.6,2.2-1,3.3c-0.8-1.1,0-2.1,0.2-3.2s0.5-2,0.8-3c0.1-0.3,0.2-0.7,0.4-1
			L543.4,351z"/>
		<path class="st0" d="M548.1,376.7l-0.3,2.5c-1-0.7-0.3-1.7-0.4-2.6c0-1.1,0-2.1,0.2-3.2C548.5,374.4,547.7,375.6,548.1,376.7z"/>
		<path class="st0" d="M555.3,338c0.1-1.4,1.2-2.6,2.7-2.7L555.3,338z"/>
		<path class="st0" d="M550.1,341.7c-0.3,0.7-0.5,1.4-0.8,2c0,0.1-0.3,0.1-0.5,0.1s-0.1-0.1-0.2-0.2c-0.1-0.9,0.2-1.8,1-2.2
			C549.8,341.3,549.9,341.5,550.1,341.7z"/>
		<path class="st0" d="M548.8,340.7c-0.2,0.3-0.4,0.6-0.6,0.8c-0.2,0.1-0.4,0.2-0.7,0.2c0-0.2-0.2-0.5-0.1-0.6
			c0.2-0.4,0.5-0.7,0.8-1c0.1-0.1,0.3,0,0.4,0S548.6,340.4,548.8,340.7z"/>
		<path class="st0" d="M639.5,403.5c-0.1,0.2-0.2,0.4-0.3,0.5c-0.2,0.1-0.4,0.1-0.6,0c-1.7-1.8-3.9-3.2-4.9-5.6
			c-0.8-2.1-1.9-4-3.5-5.5c-0.9-1-0.8-2.5,0.2-3.4c0.2-0.2,0.6-0.3,0.9-0.2c1.2,0.7,2.5,0.5,3.7,0.7c0.5,0.1,1.1,1,1.2,1.6
			c0.8,3.9,1.9,7.8,3.4,11.5C639.5,403.3,639.5,403.4,639.5,403.5z"/>
		
			<rect x="18.3" y="337" transform="matrix(0.7067 -0.7075 0.7075 0.7067 -128.175 372.7224)" class="st0" width="734.5" height="8"/>
		<path class="st0" d="M235.7,608.7v3.8c0,3.7,0.9,5.4,3.4,5.4s3-2.5,3-5.1c0-5.2-1-6.8-6.7-11.5c-6.3-5.3-9.5-8.5-9.5-16.6
			c0-8,2.6-15.3,13.2-15.3c11.2,0,12.8,7.6,12.8,14v3.2h-10.1v-3.3c0-3.4-0.6-5-2.7-5c-2,0-2.6,1.7-2.6,4.8c0,3.3,0.6,5,5.2,8.6
			c8.2,6.4,11.1,10,11.1,19.2c0,8.7-3,15.9-14,15.9c-10.6,0-13.6-6.4-13.6-14.6v-3.3H235.7z"/>
		<path class="st0" d="M279.8,601.3h-11.5v15.2h13.4l-1.3,9.4h-22.9v-55.6h22.8v9.5h-12.1v12.2h11.5V601.3z"/>
		<path class="st0" d="M296.3,601.7v24.2h-10.7v-55.6h13.9c9.3,0,13.9,4.1,13.9,13.8v2c0,7.9-3.2,10.3-5.5,11.4
			c3.5,1.7,5.1,4.2,5.1,12c0,5.4-0.1,13.5,0.4,16.4H303c-0.7-2.5-0.6-9.8-0.6-16.9c0-6.3-0.7-7.3-4.8-7.3L296.3,601.7z M296.3,593.2
			h1.3c3.6,0,5-1.1,5-6.3v-2.7c0-3.7-0.8-5.6-4.7-5.6h-1.7L296.3,593.2z"/>
		<path class="st0" d="M324.6,625.8l-8.3-55.6h11.4l2,20.6c0.7,7.2,1.6,15.2,2,22.3h0.4c0.4-7.1,1.2-14.7,1.9-22.2l1.7-20.7h11.2
			l-8.2,55.6H324.6z"/>
		<path class="st0" d="M372.5,601.3H361v15.2h13.5l-1.3,9.4h-22.9v-55.6h22.8v9.5H361v12.2h11.5L372.5,601.3z"/>
		<path class="st0" d="M395.6,625.8V608c0-1-0.1-1.9-0.4-2.9l-9.8-34.9H397c1.5,8,3.2,17.2,3.9,24.2h0.4c0.9-6.7,2.7-16.1,4.1-24.2
			h11l-10,35.8c-0.2,0.8-0.3,1.6-0.3,2.4v17.4L395.6,625.8z"/>
		<path class="st0" d="M447.1,585.1v25.8c0,11-5.2,15.8-14.9,15.8c-9.2,0-14-4.8-14-15.7v-26.2c0-10.7,5.9-15.4,14.5-15.4
			S447.1,574,447.1,585.1z M429,583.9v28.4c0,3.4,1.2,5.2,3.6,5.2s3.6-1.6,3.6-5.3v-28.5c0-3.5-1-5.2-3.6-5.2
			C430.3,578.6,429,580.2,429,583.9z"/>
		<path class="st0" d="M463.3,570.2v42.4c0,3.2,1,5,3.4,5c2.6,0,3.4-2,3.4-5v-42.4H481v41.7c0,9.9-4.5,14.7-14.4,14.7
			c-9.7,0-14-4.7-14-14.8v-41.6H463.3z"/>
		<path class="st0" d="M498,601.7v24.2h-10.6v-55.6h13.9c9.3,0,13.9,4.1,13.9,13.8v2c0,7.9-3.2,10.3-5.5,11.4
			c3.5,1.7,5.1,4.2,5.1,12c0,5.4-0.1,13.5,0.4,16.4h-10.4c-0.7-2.5-0.6-9.8-0.6-16.9c0-6.3-0.7-7.3-4.8-7.3L498,601.7z M498,593.2
			h1.3c3.6,0,5-1.1,5-6.3v-2.7c0-3.7-0.8-5.6-4.7-5.6H498L498,593.2z"/>
		<path class="st0" d="M557.8,607.7v3c0,7-1.3,16-14,16c-9.4,0-13.5-5-13.5-15.2v-27.3c0-9.7,4.8-14.8,13.7-14.8
			c11.8,0,13.7,7.7,13.7,15v3.5h-10.8v-4.8c0-3.1-0.7-4.6-2.9-4.6s-2.9,1.5-2.9,4.6v29.4c0,3,0.5,5,2.9,5s3-1.7,3-5.2v-4.6
			L557.8,607.7z"/>
		<path class="st0" d="M573.2,570.2v55.6h-10.7v-55.6H573.2z"/>
		<path class="st0" d="M585,579.7h-8.1v-9.5h26.9v9.5h-8.2v46.2H585V579.7z"/>
		<path class="st0" d="M616.4,625.8V608c0-1-0.1-1.9-0.4-2.9l-9.8-34.9h11.7c1.5,8,3.2,17.2,3.9,24.2h0.3c0.9-6.7,2.7-16.1,4.1-24.2
			h11l-10,35.8c-0.2,0.8-0.3,1.6-0.2,2.4v17.4L616.4,625.8z"/>
		<path class="st0" d="M651,570.2h13.1c11.5,0,15.4,5.2,15.4,16.8v20.9c0,9.6-2,18-14.7,18H651V570.2z M661.7,617.2h2.1
			c4.2,0,4.9-2.7,4.9-7.1v-24.9c0-4.1-0.9-6.3-5-6.3h-2L661.7,617.2z"/>
		<path class="st0" d="M712.2,607.7v3c0,7-1.3,16-14,16c-9.4,0-13.5-5-13.5-15.2v-27.3c0-9.7,4.8-14.8,13.7-14.8
			c11.8,0,13.7,7.7,13.7,15v3.5h-10.8v-4.8c0-3.1-0.7-4.6-2.9-4.6s-2.9,1.5-2.9,4.6v29.4c0,3,0.5,5,2.9,5s3-1.7,3-5.2v-4.6
			L712.2,607.7z"/>
	</g>
</g>
</svg>
